<svg width="32" height="32" viewBox="0 0 32 32" fill="none" xmlns="http://www.w3.org/2000/svg">
<path d="M16 31C24.2843 31 31 24.2843 31 16C31 7.71573 24.2843 1 16 1C7.71573 1 1 7.71573 1 16C1 24.2843 7.71573 31 16 31Z" fill="#F5F5F5"/>
<path d="M11.7 16.85C13.1 17.8 15.05 17.4 16 16C16.95 14.6 18.85 14.2 20.3 15.15C21.65 16.05 22.05 17.8 21.3 19.15C22.95 16.35 22.2 12.7 19.4 10.85C16.55 8.95 12.7 9.7 10.8 12.55C10.75 12.65 10.7 12.75 10.65 12.8C9.94998 14.25 10.4 15.95 11.7 16.85Z" fill="#ED4C5C"/>
<path d="M20.3 15.15C18.9 14.2 16.95 14.6 16 16C15.05 17.4 13.15 17.8 11.7 16.85C10.35 15.95 9.94998 14.2 10.7 12.85C8.99998 15.65 9.79998 19.3 12.6 21.15C15.45 23.05 19.3 22.3 21.2 19.45C21.25 19.35 21.3 19.25 21.35 19.2C22.05 17.75 21.6 16.05 20.3 15.15Z" fill="#428BC1"/>
<path d="M3.89995 11.65L7.34995 6.5L6.99995 6.25L6.64995 6.05L3.19995 11.2L3.54995 11.4L3.89995 11.65ZM4.84995 12.3L5.19995 12.5L8.59995 7.35L8.29995 7.15L7.94995 6.9L4.49995 12.05L4.84995 12.3ZM9.19995 7.75L5.79995 12.9L6.14995 13.15L6.49995 13.35L9.89995 8.2L9.54995 8L9.19995 7.75ZM24.25 21.25L24.6 21.5L26.2 19.1L25.85 18.85L25.5 18.65L23.9 21.05L24.25 21.25ZM28.1 20.35L26.5 22.75L26.85 23L27.2 23.2L28.7999 20.8L28.45 20.6L28.1 20.35ZM25.9 22.35L27.5 19.95L27.15 19.7L26.7999 19.5L25.2 21.9L25.5499 22.1L25.9 22.35ZM24.0499 21.6L23.7 21.4L22.1 23.8L22.45 24L22.7999 24.25L24.4 21.85L24.0499 21.6ZM25.2999 22.45L25 22.25L23.4 24.65L23.7 24.85L24.0499 25.1L25.65 22.7L25.2999 22.45ZM26.25 23.1L24.65 25.5L25 25.75L25.35 25.95L26.95 23.55L26.6 23.3L26.25 23.1ZM3.54995 20.6L3.19995 20.8L6.64995 25.95L6.99995 25.75L7.34995 25.5L3.89995 20.35L3.54995 20.6ZM6.69995 22.45L6.34995 22.7L7.94995 25.1L8.29995 24.85L8.59995 24.65L6.99995 22.25L6.69995 22.45ZM6.14995 18.85L5.79995 19.1L9.19995 24.25L9.54995 24L9.89995 23.8L6.49995 18.65L6.14995 18.85ZM4.49995 19.95L6.09995 22.35L6.44995 22.1L6.79995 21.9L5.19995 19.5L4.84995 19.7L4.49995 19.95ZM26.6 8.7L26.95 8.45L25.35 6.05L25 6.25L24.65 6.5L26.25 8.9L26.6 8.7ZM24.0499 10.4L24.4 10.15L22.7999 7.75L22.45 8L22.1 8.2L23.7 10.6L24.0499 10.4ZM26.5 9.25L28.1 11.65L28.45 11.4L28.7999 11.2L27.2 8.8L26.85 9L26.5 9.25ZM27.15 12.3L27.5 12.05L24.0499 6.9L23.7 7.15L23.4 7.35L26.7999 12.5L27.15 12.3ZM25.85 13.15L26.2 12.9L24.6 10.5L24.25 10.75L23.9 10.95L25.5 13.35L25.85 13.15Z" fill="#3E4347"/>
</svg>
