<svg width="48" height="48" viewBox="0 0 48 48" fill="none" xmlns="http://www.w3.org/2000/svg">
<path d="M33.6401 41.536L7.50612 7.936C7.36837 7.75862 7.28317 7.54614 7.2602 7.32274C7.23723 7.09934 7.27741 6.87397 7.37618 6.67227C7.47494 6.47057 7.62833 6.30063 7.81889 6.18179C8.00945 6.06295 8.22954 5.99996 8.45412 6H13.4141C13.5967 6.00027 13.7768 6.04221 13.9408 6.12262C14.1047 6.20303 14.2481 6.31978 14.3601 6.464L40.4941 40.064C40.6319 40.2414 40.7171 40.4539 40.74 40.6773C40.763 40.9007 40.7228 41.126 40.6241 41.3277C40.5253 41.5294 40.3719 41.6994 40.1813 41.8182C39.9908 41.9371 39.7707 42 39.5461 42H34.5861C34.4035 41.9997 34.2234 41.9578 34.0595 41.8774C33.8955 41.797 33.7521 41.6802 33.6401 41.536Z" stroke="white" stroke-width="1.5"/>
<path d="M40 6L8 42" stroke="white" stroke-width="1.5" stroke-linecap="round"/>
</svg>
