<svg width="48" height="48" viewBox="0 0 48 48" fill="none" xmlns="http://www.w3.org/2000/svg">
<g clip-path="url(#clip0_147_333)">
<path fill-rule="evenodd" clip-rule="evenodd" d="M8 24C8.00029 20.9209 8.88903 17.9073 10.5596 15.3208C12.2301 12.7342 14.6115 10.6847 17.418 9.41803C20.2245 8.15137 23.3369 7.72141 26.3817 8.17975C29.4265 8.63808 32.2743 9.96525 34.5836 12.002C36.8928 14.0387 38.5653 16.6985 39.4003 19.6622C40.2354 22.6259 40.1976 25.7676 39.2914 28.7103C38.3852 31.6531 36.6492 34.2718 34.2915 36.2524C31.9339 38.2329 29.0549 39.4911 26 39.876V28H30C30.5304 28 31.0391 27.7893 31.4142 27.4142C31.7893 27.0391 32 26.5304 32 26C32 25.4696 31.7893 24.9609 31.4142 24.5858C31.0391 24.2107 30.5304 24 30 24H26V20C26 19.4696 26.2107 18.9609 26.5858 18.5858C26.9609 18.2107 27.4696 18 28 18H29C29.5304 18 30.0391 17.7893 30.4142 17.4142C30.7893 17.0391 31 16.5304 31 16C31 15.4696 30.7893 14.9609 30.4142 14.5858C30.0391 14.2107 29.5304 14 29 14H28C26.4087 14 24.8826 14.6321 23.7574 15.7574C22.6321 16.8826 22 18.4087 22 20V24H18C17.4696 24 16.9609 24.2107 16.5858 24.5858C16.2107 24.9609 16 25.4696 16 26C16 26.5304 16.2107 27.0391 16.5858 27.4142C16.9609 27.7893 17.4696 28 18 28H22V39.876C18.1332 39.3888 14.5772 37.5071 11.9995 34.5839C9.42179 31.6608 7.99964 27.8973 8 24ZM24 44C35.046 44 44 35.046 44 24C44 12.954 35.046 4 24 4C12.954 4 4 12.954 4 24C4 35.046 12.954 44 24 44Z" fill="white"/>
</g>
<defs>
<clipPath id="clip0_147_333">
<rect width="48" height="48" fill="white"/>
</clipPath>
</defs>
</svg>
