<svg width="48" height="48" viewBox="0 0 48 48" fill="none" xmlns="http://www.w3.org/2000/svg">
<g clip-path="url(#clip0_147_325)">
<path d="M24 8C25.71 8 27.464 8.044 29.164 8.116L31.172 8.212L33.094 8.326L34.894 8.448L36.538 8.576C38.3224 8.71178 40.0016 9.47287 41.2799 10.7252C42.5582 11.9775 43.3536 13.6408 43.526 15.422L43.606 16.272L43.756 18.092C43.896 19.978 44 22.034 44 24C44 25.966 43.896 28.022 43.756 29.908L43.606 31.728L43.526 32.578C43.3536 34.3595 42.5579 36.023 41.2792 37.2754C40.0004 38.5278 38.3207 39.2887 36.536 39.424L34.896 39.55L33.096 39.674L31.172 39.788L29.164 39.884C27.4437 39.9585 25.722 39.9972 24 40C22.278 39.9972 20.5563 39.9585 18.836 39.884L16.828 39.788L14.906 39.674L13.106 39.55L11.462 39.424C9.67763 39.2882 7.9984 38.5271 6.72009 37.2748C5.44178 36.0225 4.64638 34.3592 4.474 32.578L4.394 31.728L4.244 29.908C4.09167 27.9422 4.01028 25.9716 4 24C4 22.034 4.104 19.978 4.244 18.092L4.394 16.272L4.474 15.422C4.64631 13.6411 5.44142 11.9781 6.71933 10.7258C7.99723 9.47352 9.67598 8.71223 11.46 8.576L13.102 8.448L14.902 8.326L16.826 8.212L18.834 8.116C20.555 8.04145 22.2774 8.00278 24 8ZM24 12C22.35 12 20.652 12.044 19 12.112L17.044 12.206L15.166 12.316L13.402 12.436L11.786 12.562C10.9364 12.6215 10.1354 12.9803 9.52532 13.5746C8.91526 14.1689 8.53567 14.9602 8.454 15.808C8.22 18.226 8 21.236 8 24C8 26.764 8.22 29.774 8.454 32.192C8.624 33.936 10.008 35.292 11.786 35.438L13.402 35.562L15.166 35.682L17.044 35.794L19 35.888C20.652 35.956 22.35 36 24 36C25.65 36 27.348 35.956 29 35.888L30.956 35.794L32.834 35.684L34.598 35.564L36.214 35.438C37.0636 35.3785 37.8646 35.0197 38.4747 34.4254C39.0847 33.8311 39.4643 33.0398 39.546 32.192C39.78 29.774 40 26.764 40 24C40 21.236 39.78 18.226 39.546 15.808C39.4643 14.9602 39.0847 14.1689 38.4747 13.5746C37.8646 12.9803 37.0636 12.6215 36.214 12.562L34.598 12.438L32.834 12.318L30.956 12.206L29 12.112C27.3343 12.0405 25.6673 12.0032 24 12ZM20 19.15C19.9999 18.9545 20.0475 18.762 20.1387 18.5891C20.23 18.4162 20.3621 18.2683 20.5235 18.1581C20.685 18.0479 20.8709 17.9788 21.0651 17.9568C21.2594 17.9348 21.456 17.9607 21.638 18.032L21.8 18.112L30.2 22.96C30.3673 23.0565 30.5088 23.192 30.6125 23.3549C30.7162 23.5178 30.7791 23.7033 30.7958 23.8957C30.8125 24.0881 30.7825 24.2817 30.7084 24.46C30.6342 24.6383 30.5182 24.7961 30.37 24.92L30.2 25.04L21.8 29.89C21.6307 29.988 21.4401 30.0432 21.2446 30.0507C21.0491 30.0582 20.8548 30.0177 20.6785 29.933C20.5022 29.8482 20.3494 29.7216 20.2332 29.5642C20.117 29.4068 20.0411 29.2234 20.012 29.03L20 28.85V19.15Z" fill="white"/>
</g>
<defs>
<clipPath id="clip0_147_325">
<rect width="48" height="48" fill="white"/>
</clipPath>
</defs>
</svg>
